<svg width="19" height="18" viewBox="0 0 19 18" fill="none" xmlns="http://www.w3.org/2000/svg">
<path fill-rule="evenodd" clip-rule="evenodd" d="M8.4532 0.199951H4.0532C2.10928 0.199951 0.533203 1.77603 0.533203 3.71995V14.28C0.533203 16.2239 2.10928 17.8 4.0532 17.8H14.6132C16.5571 17.8 18.1332 16.2239 18.1332 14.28C18.1332 12.2815 18.1332 9.87995 18.1332 9.87995C18.1332 9.39419 17.739 8.99995 17.2532 8.99995C16.7674 8.99995 16.3732 9.39419 16.3732 9.87995V14.28C16.3732 15.2515 15.5847 16.04 14.6132 16.04C11.6828 16.04 6.98272 16.04 4.0532 16.04C3.0808 16.04 2.2932 15.2515 2.2932 14.28C2.2932 11.3496 2.2932 6.64947 2.2932 3.71995C2.2932 2.74755 3.0808 1.95995 4.0532 1.95995H8.4532C8.93896 1.95995 9.3332 1.56571 9.3332 1.07995C9.3332 0.594191 8.93896 0.199951 8.4532 0.199951ZM15.1289 1.95995H11.9732C11.4874 1.95995 11.0932 1.56571 11.0932 1.07995C11.0932 0.594191 11.4874 0.199951 11.9732 0.199951H17.2532C17.739 0.199951 18.1332 0.594191 18.1332 1.07995V6.35995C18.1332 6.84571 17.739 7.23995 17.2532 7.23995C16.7674 7.23995 16.3732 6.84571 16.3732 6.35995V3.20427L9.95537 9.62211C9.61216 9.96531 9.05424 9.96531 8.71104 9.62211C8.36696 9.27891 8.36696 8.72099 8.71104 8.37779L15.1289 1.95995Z" fill="#25A2E9"/>
</svg>
